<svg width="512" height="512" viewBox="0 0 512 512" fill="none" xmlns="http://www.w3.org/2000/svg" role="img" aria-label="LaporanTAD">
  <defs>
    <!-- Gradien clay biru: sorotan kiri-atas → biru dalam kanan-bawah -->
    <linearGradient id="clayBg" x1="70" y1="52" x2="452" y2="470" gradientUnits="userSpaceOnUse">
      <stop offset="0" stop-color="#85a2ff"/>
      <stop offset="0.52" stop-color="#5f84f5"/>
      <stop offset="1" stop-color="#3a62d8"/>
    </linearGradient>
    <linearGradient id="markGrad" x1="150" y1="180" x2="392" y2="360" gradientUnits="userSpaceOnUse">
      <stop offset="0" stop-color="#ffffff"/>
      <stop offset="1" stop-color="#dbe6ff"/>
    </linearGradient>
    <radialGradient id="topGlow" cx="0" cy="0" r="1" gradientUnits="userSpaceOnUse"
      gradientTransform="translate(150 118) rotate(52) scale(300 300)">
      <stop offset="0" stop-color="#ffffff" stop-opacity="0.55"/>
      <stop offset="1" stop-color="#ffffff" stop-opacity="0"/>
    </radialGradient>
    <radialGradient id="botShade" cx="0" cy="0" r="1" gradientUnits="userSpaceOnUse"
      gradientTransform="translate(388 402) rotate(-130) scale(280 280)">
      <stop offset="0" stop-color="#1a2f7a" stop-opacity="0.32"/>
      <stop offset="1" stop-color="#1a2f7a" stop-opacity="0"/>
    </radialGradient>
    <filter id="markShadow" x="100" y="100" width="360" height="360" filterUnits="userSpaceOnUse">
      <feDropShadow dx="0" dy="9" stdDeviation="12" flood-color="#0c1a52" flood-opacity="0.40"/>
    </filter>
  </defs>

  <!-- Squircle clay -->
  <rect x="24" y="24" width="464" height="464" rx="132" fill="url(#clayBg)"/>
  <rect x="24" y="24" width="464" height="464" rx="132" fill="url(#topGlow)"/>
  <rect x="24" y="24" width="464" height="464" rx="132" fill="url(#botShade)"/>
  <!-- Cincin sorotan tipis (rim light) untuk kesan timbul -->
  <rect x="30" y="30" width="452" height="452" rx="126" fill="none" stroke="#ffffff" stroke-opacity="0.20" stroke-width="3"/>

  <!-- Logo Pertamina: mark resmi tiga anak panah (merah, hijau, biru) -->
  <g filter="url(#markShadow)">
    <g transform="translate(118.3 152.2) scale(3.5)"
       stroke="#ffffff" stroke-opacity="0.30" stroke-width="0.7" stroke-linejoin="round">
      <path fill="#E50021" d="M78.7,20H59.4c0,0-4.7,0.1-7.2-3.7C49.7,12.6,41.6,0,41.6,0h19.8c0,0,3.9,0.1,6.3,3.4C70.2,6.8,78.7,20,78.7,20"/>
      <path fill="#B8C900" d="M78.7,25.2H59.4c0,0-4.7-0.1-7.2,3.7S41.6,45.2,41.6,45.2h19.8c0,0,3.9-0.1,6.3-3.4C70.2,38.5,78.7,25.2,78.7,25.2"/>
      <path fill="#0061B0" d="M44.1,28.6c1.3-2.1,3.4-3.4,3.4-3.4H27.1c0,0-4.7-0.1-7.2,3.7S0,59.3,0,59.3h19.8c0,0,3.9-0.1,6.3-3.4C28,53.3,39.3,36,44.1,28.6"/>
    </g>
  </g>
</svg>
